<svg xmlns="http://www.w3.org/2000/svg" xmlns:xlink="http://www.w3.org/1999/xlink" viewBox="0 0 170.75 245.49"><defs><style>.cls-1{isolation:isolate;}.cls-2{fill:#e3eccc;}.cls-3{fill:#b6bea0;}.cls-4{fill:#d8fffd;opacity:0.44;}.cls-5{fill:url(#Degradado_sin_nombre_28);}.cls-6{fill:url(#Degradado_sin_nombre_89);}.cls-7{fill:#75dca6;}.cls-8{fill:#bababa;mix-blend-mode:multiply;opacity:0.59;}.cls-9{fill:#fff;}.cls-10,.cls-11,.cls-12{fill:none;stroke-width:4px;}.cls-10,.cls-11{stroke:#321563;}.cls-10{stroke-miterlimit:10;}.cls-11,.cls-12{stroke-linecap:round;stroke-linejoin:round;}.cls-12{stroke:#fff;}.cls-13{fill:#b1ea26;}.cls-14{fill:#e05024;}</style><linearGradient id="Degradado_sin_nombre_28" x1="21.55" y1="139.82" x2="147.86" y2="139.82" gradientUnits="userSpaceOnUse"><stop offset="0" stop-color="#ffa687"/><stop offset="0.15" stop-color="#ff6ced"/><stop offset="0.34" stop-color="#5e69ff"/><stop offset="0.54" stop-color="#43eeff"/><stop offset="0.72" stop-color="#4eff68"/><stop offset="0.85" stop-color="#fbff64"/><stop offset="1" stop-color="#ff5728"/></linearGradient><linearGradient id="Degradado_sin_nombre_89" x1="47.34" y1="116.62" x2="145.31" y2="116.62" gradientUnits="userSpaceOnUse"><stop offset="0" stop-color="#ad0018"/><stop offset="0.15" stop-color="#e930ff"/><stop offset="0.34" stop-color="#2331ff"/><stop offset="0.54" stop-color="#23f3ff"/><stop offset="0.72" stop-color="#36ff43"/><stop offset="0.85" stop-color="#faff54"/><stop offset="1" stop-color="#ff6046"/></linearGradient></defs><g class="cls-1"><g id="Capa_2" data-name="Capa 2"><g id="Capa_10" data-name="Capa 10"><path class="cls-2" d="M11.33,35l1.37-9.29,9.51-4.89,8.11-1.41-2.72,7.8,5.6,5.66s20.76,8.87,23,7.66,44-.28,44-.28l19.35-2,9.32-2.09,11.55-5.05L143.67,28l-5.12-8.63L151.85,23s6,0,6.2,1.27,1.54,15.06,1.54,15.06L166,44.61l2.78,6s-.68,11.92-2.09,11.61-5.36,4-5.36,4l-3.25,4.39L130.67,81.34l-28.14,5.38-27.45,1L53.79,84.61l-26.7-7.16-10-3.75-5.77-6.29L9.39,64.12,2,56l1-8.33,5.89-5.2Z"/><path class="cls-2" d="M22.21,162.3l1.09,8.89,13.42,4.55s45.77,6.33,46.45,6.34,22.64-1.87,23.15-1.87,12.89-.76,12.89-.76l15.25-3.85,12-7,2-5s2.91-1.43,3.74-1.23,7.31,3.1,7.31,3.1l1.2,15.15-1.2,30.13-10,7.83s-3.87,3.21-3.84,3-2.11,11.89-2.11,11.89l-13.33,5-35.71,6.47-28.12-2.25-39.63-7.79-2-14.15L12,212.6l-1.71-12.13s.85-30,.85-31,6.3-7.23,6.3-7.23Z"/><polygon class="cls-3" points="43 205.4 41.81 220.7 41.81 225.86 67.85 229.91 75.08 229.91 93.39 229.91 100.53 230.25 105.3 229.91 111.09 230.25 119.94 228.16 126.06 226.85 128.94 225.86 128.79 210.51 128.02 205.4 124.4 203.18 86.11 205.53 63.77 204.72 53.79 204.18 45 203.58 43 205.4"/><polygon class="cls-4" points="22.21 75.7 22.98 168.55 36.46 178.22 88.63 181.66 111.43 180.55 125.25 178.22 138.32 174.09 145.84 170.2 148.54 166.94 148.54 75.7 135.82 79.31 100.53 87.28 87.02 87.27 61.36 85.71 39.94 81.49 30.41 78.43 22.21 75.7"/><polygon class="cls-5" points="23.3 112.64 32.11 110.77 46.36 116.89 61.36 121.51 79.09 121.51 93.26 115.91 107 109.4 119.94 101.57 128.94 97.98 137.98 98.51 144.19 100.72 148.54 106.12 148.53 118.25 148.54 163.53 145.84 170.2 122.48 178.82 79.86 181.66 59.34 180.21 41.81 177.29 32.11 174.09 24.88 170.18 22.24 165.91 23.3 112.64"/><polygon class="cls-6" points="140.49 99.41 122.48 100.56 101.42 112.05 79.09 121.51 61.47 122.65 47.86 117.83 64.53 128.68 81.13 133.06 95.67 133.83 107.94 131.28 120.19 125.4 130.15 120.55 140.49 112.38 145.84 108.04 145.46 102.3 140.49 99.41"/><polygon class="cls-7" points="27.61 27.21 35.49 14.49 50.44 5.04 69.21 2 98.5 2.31 116.96 4.33 132.49 10.31 140.36 25.71 143.66 28.89 126.06 36.89 98.49 40.99 81.81 40.3 56.23 39.03 46.36 37.32 27.61 30.09 27.61 27.21"/><path class="cls-8" d="M36.46,13.88s14.33,6.94,24.14,7.83,36.87,24,80.44,8.38l-6.75,5.42-34,4.74L65.3,41,47.86,38.61,33.2,32.87l-5.6-4.09Z"/><path class="cls-8" d="M11.17,30.09s8.68,14.12,28.94,17.36,25.7,3.15,25.7,3.15l15.66,8.13-6.39,4.48S75,69,75.13,70s3.11,5.75,3.11,5.75l3.23,3.61,7.38-.6,4.35-3,2-3.6L95.67,69s7.54,3.86,35.24,2.26c0,0,7.1,1.13,7.71.82S141,70.43,141,70.43l2.56-3.86s11.57-1.59,15.83-5.68V68.7L152,74.36l-21.34,7L78.92,87.7,58.87,85.22s-30.93-7.47-31.78-7.77-11-4.16-11-4.16l-4.94-8.77-6-2.94L2,52.75l3.21-7.69L10.32,41Z"/><path class="cls-8" d="M76.89,63.21S79.6,77.92,92,75.7l-3.17,3-8.62-.79-3.34-4.48L73.47,69Z"/><path class="cls-8" d="M125.4,58.89s.67,13.53,18.2,7.68L141,72.1c-.17.37-7.14,1-7.14,1s-2.41.63-3,0-5.06-4.75-5.06-4.75l-1.45-7.46V58Z"/><polygon class="cls-8" points="159.58 56.47 168.47 54.3 166.9 59.82 162.96 64.52 159.43 64.52 159.58 56.47"/><path class="cls-8" d="M29.61,19.41l-17.56,4.2L12.73,35l22.36,9.67,13.26,4s6.91,3.61,63.86-6.22c43.47-7.5,13.87-4.74,13.87-4.74L65.3,41,31.08,32l-2.31-6.49Z"/><path class="cls-8" d="M148.54,82.68s-43.61,21.79-92.31,22.81l6,41.7s22.65,24.4,87.49,15.8l-1.19,6.84-34,11.82s-47.17,1.28-52.08,0-25.95-5.18-25.95-5.18L22.21,168V74.17L44.7,81.32s17.88,3.91,18.39,3.91,43.06,1.54,43.06,1.54l34.72-8.06,7.67-3.21Z"/><path class="cls-8" d="M21.55,163.53,23.3,169l18.51,9.55,80,.62,17.2-4.41S99.08,197.61,61.25,193l-19.44-2.74-8.14-3.49L22.24,181.4l-7.39-5.32-3.74-4L13,164.82l5.34-2.56Z"/><path class="cls-8" d="M11.16,174.94l-.05,28.24,1.58,10.33L23.3,219.7l3.83,13.7L62,241.77l22.15,3.12,21.12-2.07,13.44-3.2,16.68-1.36,5.44-3.82s3.16-3.34,3.31-4.18,3.71-10.38,3.71-10.38l9.5-5.72,2.48-10.58-18,7.27s-38,5.11-72.17-16.68c0,0-34.5-7.32-36.06-7.4s-17.56-11-17.56-11Z"/><path class="cls-9" d="M85.38,3s51.09,6.76,41.36,11.62a72.65,72.65,0,0,1-14.59,5.61L128,17.46l4.74-3.17-.64-3.4L122.4,5.58,109,3.15s-13.61-.87-15.53-.89S85.38,3,85.38,3Z"/><path class="cls-9" d="M142.79,23.79c.38,0,12.25.51,11,5.1,0,0,.38,6-9.07,11.64l10-3,3.39-7.48,1.38-4.38s-8.43-4.86-8.32-4.86S142,19.41,142,19.41h-3.47Z"/><path class="cls-9" d="M160.79,45.49s5.44,2.52,6.38,7.26l1.3-7.26-6.15-4.91-2.74,2.08Z"/><path class="cls-9" d="M127.53,56s14.58,1.37,16.07,7.75L141.77,56l-7.48-2.68Z"/><path class="cls-9" d="M81.77,61.19S93,63.31,94.28,73.1c0,0,1.91-4.25,1.91-4.63s-7.13-9.06-7.13-9.06a45.42,45.42,0,0,0-4.87-.68A25,25,0,0,0,81.77,61.19Z"/><path class="cls-9" d="M149.73,166.38s10.25,1.79,0,10.09c0,0-14.63,11.75-23.46,13.57l20.6-6.42,6.41-5.4,6.31-4.82-.39-6.11s-4.38-4.46-5.06-4.59-4.41-1.17-4.41-1.17Z"/><path class="cls-9" d="M153.85,180.13l.93,34.74s4.09-5.12,3.9-5.13-.28-19.4-.28-19.4V175.78Z"/><polygon class="cls-9" points="154.15 36.72 154.15 72.1 159.43 68.7 159.58 49.35 159.58 32.93 154.15 36.72"/><path class="cls-9" d="M130.91,17s9.2,12.59,9.45,12.59,3-.92,2.45-1.5a64,64,0,0,1-4.26-8.27c0-.39-4.08-6.58-4.08-6.58Z"/><circle class="cls-10" cx="85.38" cy="69.02" r="10.29"/><circle class="cls-10" cx="36.46" cy="62.21" r="9.89"/><path class="cls-10" d="M12.7,41C6.21,41,2,46.25,2,52.75S5.84,64.52,12.34,64.52"/><path class="cls-11" d="M11.17,30.09V65.87a8,8,0,0,0,4.94,7.42C26.9,77.8,54.07,87.7,84.55,87.7"/><path class="cls-11" d="M85.38,50.6S28,51.31,12.7,32.47c0,0-9.1-10.81,19.5-13.06"/><path class="cls-11" d="M22.21,75.7V168s12.52,14.05,63.17,14.05"/><path class="cls-11" d="M86.11,194.09s-50.39,2.52-72.84-19.48a7.07,7.07,0,0,1,3.34-11.91,20.55,20.55,0,0,1,5.6-.4"/><path class="cls-11" d="M11.16,168.55v40.91a6.13,6.13,0,0,0,3,5.26c7.37,4.41,29,16.13,71.24,16.13"/><path class="cls-11" d="M24.87,220.7l2.26,12.7S49.14,244,87,243.47"/><path class="cls-11" d="M37.73,10.89,27.09,28s6.36,13,58.29,12.47"/><path class="cls-11" d="M84.55,23s-38.3.53-46.5-8.73a2.85,2.85,0,0,1,.21-4C41.49,7.31,51.93,2,85.38,2"/><circle class="cls-10" cx="134.29" cy="63.21" r="9.89"/><path class="cls-10" d="M158.05,41c6.5,0,10.7,5.26,10.7,11.76s-3.84,11.77-10.33,11.77"/><path class="cls-11" d="M159.58,30.09V65.82a8.11,8.11,0,0,1-5,7.49C143.77,77.83,115.82,87.7,85.38,87.7"/><path class="cls-11" d="M85.38,50.6s57.35.71,72.67-18.13c0,0,9.1-10.81-19.5-13.06"/><path class="cls-11" d="M148.54,75.7V168S136,182.09,85.38,182.09"/><path class="cls-11" d="M84.64,194.09s50.39,2.52,72.84-19.48a7.07,7.07,0,0,0-3.34-11.91,20.55,20.55,0,0,0-5.6-.4"/><path class="cls-11" d="M159.59,168.55v40.91a6.13,6.13,0,0,1-3,5.26c-7.36,4.41-29,16.13-71.23,16.13"/><path class="cls-11" d="M128.94,223.83V208.35a5.15,5.15,0,0,0-6.14-5.07,47.94,47.94,0,0,1-6,.39c-4,.27-8.08.59-12.13.88-17.83,1.28-36,1.9-53.77-.77-1-.15-2-.31-3-.5a5.16,5.16,0,0,0-6.14,5.07v15.48"/><path class="cls-11" d="M145.88,220.7l-2.26,12.7S124.9,244,87,243.47"/><path class="cls-11" d="M133,10.89,143.67,28S137.3,41,85.38,40.51"/><path class="cls-11" d="M84.55,23s40,.53,48.16-8.73a2.86,2.86,0,0,0-.22-4C129.26,7.31,118.82,2,85.38,2"/><path class="cls-11" d="M23.3,112.64s6.25-8.84,31.53,10c0,0,33.83,25.46,72-.45,0,0,31.79-18.11,13.15-23.48-10.18-2.93-22.15,3.37-30.39,8.57-11,7-22.58,12.2-35.72,13.89A53.84,53.84,0,0,1,50,119.25"/><line class="cls-12" x1="139.01" y1="108.3" x2="139.01" y2="132.64"/><line class="cls-12" x1="139.01" y1="138.77" x2="139.01" y2="141.15"/><path class="cls-11" d="M112.86,32.4l.68,9.61s2.39,1.79,7.66-.59L120.61,31s-.51-3.92-4.34-3.58C116.27,27.37,112.83,27.26,112.86,32.4Z"/><path class="cls-13" d="M112.86,32.4l.68,9.61s2.39,1.79,7.66-.59L120.61,31s-.51-3.92-4.34-3.58C116.27,27.37,112.83,27.26,112.86,32.4Z"/><path class="cls-11" d="M126.74,30.32l.68,9.62s2.38,1.79,7.66-.59l-.6-10.47S134,25,130.14,25.3C130.14,25.3,126.7,25.18,126.74,30.32Z"/><path class="cls-14" d="M126.74,30.32l.68,9.62s2.38,1.79,7.66-.59l-.6-10.47S134,25,130.14,25.3C130.14,25.3,126.7,25.18,126.74,30.32Z"/></g></g></g></svg>