<svg xmlns="http://www.w3.org/2000/svg" xmlns:xlink="http://www.w3.org/1999/xlink" viewBox="0 0 248.99 67.02"><defs><style>.cls-1{isolation:isolate;}.cls-2{fill:#bbfbff;opacity:0.44;}.cls-3{fill:url(#Degradado_sin_nombre_28);}.cls-4{fill:url(#Degradado_sin_nombre_130);}.cls-16,.cls-5{fill:none;}.cls-5{stroke:#fff;stroke-linecap:round;stroke-linejoin:round;stroke-width:2px;}.cls-6,.cls-7{fill:#bababa;}.cls-11,.cls-6{mix-blend-mode:multiply;}.cls-6{opacity:0.64;}.cls-8{fill:#e3eccc;}.cls-9{fill:#b6bea0;}.cls-10{fill:#75dca6;}.cls-11{opacity:0.59;}.cls-12{fill:#fff;}.cls-13{fill:#321563;}.cls-14{fill:#b1ea26;}.cls-15{fill:#e05024;}</style><linearGradient id="Degradado_sin_nombre_28" x1="170.28" y1="59.98" x2="170.28" y2="4.96" gradientUnits="userSpaceOnUse"><stop offset="0" stop-color="#ffa687"/><stop offset="0.15" stop-color="#ff6ced"/><stop offset="0.34" stop-color="#5e69ff"/><stop offset="0.54" stop-color="#43eeff"/><stop offset="0.72" stop-color="#4eff68"/><stop offset="0.85" stop-color="#fbff64"/><stop offset="1" stop-color="#ff5728"/></linearGradient><linearGradient id="Degradado_sin_nombre_130" x1="119.5" y1="57.63" x2="119.5" y2="6.02" gradientUnits="userSpaceOnUse"><stop offset="0" stop-color="#ffa687"/><stop offset="0.15" stop-color="#ff6ced"/><stop offset="0.34" stop-color="#5e69ff"/><stop offset="0.53" stop-color="#435cff"/><stop offset="0.72" stop-color="#4eac68"/><stop offset="0.85" stop-color="#fbbd0e"/><stop offset="0.99" stop-color="#cf0000"/></linearGradient></defs><g class="cls-1"><g id="Capa_2" data-name="Capa 2"><g id="Capa_1-2" data-name="Capa 1"><polygon class="cls-2" points="29.71 9.5 218 8.98 220.55 12.54 223.31 24.36 224.1 28.68 223.31 43.6 221.61 52.61 219.11 58.89 29.71 58.21 32.71 48.85 34.42 29.27 31.92 17.41 29.71 9.5"/><path class="cls-3" d="M116.45,9.26l5.93,6.38L126.91,26v6.44L125.48,42l-3,4.26L118,51.87l.72,3.13-.48,3.71s97.59-.07,98.92-.37,7.3-3.69,7-25.61-5-24.6-5-24.6Z"/><polygon class="cls-4" points="117.09 56.44 126.91 37.23 126.91 27.92 123.5 18.22 117.09 9.95 115.56 9 113.51 10.55 112.09 14.13 113.51 18.6 117.73 26.51 119.5 31.49 121.56 35.96 122.2 40.68 121.94 46.17 119.5 48.84 117.09 56.44"/><line class="cls-5" x1="131" y1="13.04" x2="185.11" y2="13.04"/><line class="cls-5" x1="190.03" y1="13.04" x2="192.58" y2="13.04"/><path class="cls-6" d="M41.09,39.15H223.31l-.38,9-1.32,4.5-1.53,3.83L219,57.88l-189.26.33,4.48-19.06L30.89,7.93S41.09,12.64,41.09,39.15Z"/><path class="cls-7" d="M1.77,40v3.76l.38,6.65,4,2.31,1.49-5.43"/><path class="cls-8" d="M13.74,62.58,10.09,62,8.17,58.3l-.55-3.18,3.06,1.07L12.9,54s3.48-8.15,3-9-.11-17.29-.11-17.29L15,20.07l-.82-3.66-2-4.53L11,10.63l-3.39,2L9,7.42S9,5.08,9.54,5s5.91-.61,5.91-.61l2.06-2.5L19.86.79s4.68.26,4.56.82S26,3.71,26,3.71L27.7,5l4.23,10.74L34,26.78l.38,10.77-1.21,8.36L30.4,56.39l-1.47,3.92-2.47,2.27-1.29.76L22,66.24l-3.27-.39-2-2.31Z"/><path class="cls-8" d="M216.33,58.3l3.49-.42,1.79-5.27s2.48-18,2.48-18.23-.73-8.89-.73-9.09-.3-5.06-.3-5.06l-1.51-6-2.76-4.73-2-.8a4.47,4.47,0,0,1-.49-1.47c.08-.32,1.22-2.87,1.22-2.87l5.95-.47,11.82.47,3.08,3.93s1.25,1.52,1.17,1.51l4.67.83,2,5.23,2.54,14-.88,11-3.06,15.55-5.56.77-3.18,5-4.76.67s-11.78-.33-12.15-.33-2.84-2.47-2.84-2.47Z"/><polygon class="cls-9" points="233.25 50.14 239.25 50.61 241.28 50.61 242.87 40.39 242.87 37.55 242.87 30.37 243 27.56 242.87 25.69 243 23.42 242.18 19.95 241.67 17.54 241.28 16.41 235.25 16.47 233.25 16.77 232.38 18.2 233.3 33.22 232.98 41.99 232.77 45.91 232.53 49.36 233.25 50.14"/><polygon class="cls-10" points="10.68 56.19 5.69 53.09 1.98 47.23 0.79 39.85 0.91 28.36 1.7 21.11 4.05 15.02 10.09 11.93 11.34 10.63 14.48 17.54 16.09 28.36 15.82 34.91 15.32 44.95 14.65 48.83 11.81 56.19 10.68 56.19"/><g class="cls-11"><path class="cls-7" d="M5.45,52.71s2.72-5.62,3.07-9.47S18,28.76,11.81,11.66l2.13,2.65L15.8,27.66l.29,13.73-.94,6.85L12.9,54l-1.61,2.2Z"/></g><g class="cls-11"><path class="cls-7" d="M11.81,62.64a16.81,16.81,0,0,0,6.81-11.36c1.27-8,1.24-10.09,1.24-10.09L23.05,35l1.76,2.51s2.29,0,2.65,0a17.16,17.16,0,0,0,2.26-1.22L31.13,35l-.24-2.89-1.17-1.71-1.42-.78-1.21-.19s1.51-3,.89-13.83a21.37,21.37,0,0,0,.32-3c-.12-.23-.65-.95-.65-.95l-1.52-1S25.5,6.12,23.9,4.45H27l2.22,2.91,2.74,8.37,2.49,20.32-1,7.87S30.52,56.06,30.4,56.39s-1.63,4.31-1.63,4.31l-3.45,1.94L24.17,65l-3.46,1.26-3-1.26-1.6-2Z"/></g><g class="cls-11"><path class="cls-7" d="M24.81,36.84s5.77-1.06,4.91-5.94l1.17,1.25-.3,3.38-1.76,1.31-1.74,1.34Z"/></g><g class="cls-11"><path class="cls-7" d="M23.12,17.8s5.31-.26,3-7.14l2.17,1a20.8,20.8,0,0,1,.39,2.81s.25.94,0,1.17-1.86,2-1.86,2l-2.93.57H22.77Z"/></g><g class="cls-11"><polygon class="cls-7" points="22.16 4.38 21.32 0.9 23.48 1.51 25.32 3.06 25.32 4.45 22.16 4.38"/></g><g class="cls-11"><path class="cls-7" d="M7.62,55.4l1.65,6.89L13.74,62l3.8-8.78L19.12,48S20.53,45.33,16.67,23c-2.94-17.06-1.86-5.45-1.86-5.45l1.28,23.86L12.57,54.82,10,55.73Z"/></g><g class="cls-11"><path class="cls-7" d="M216.82,58.56l2.15-.68,3.75-7.27,1.37-16.23-1.51-18.74s7.61,12.49,5.8,27.34l-1.08,7.63-1.36,3.2-2.11,4.48-2.09,2.9-1.58,1.47-2.84-.73-1-2.1Z"/></g><g class="cls-11"><path class="cls-7" d="M221.29,62.64l11.09,0,4.05-.62,2.43-4.16,5.38-1.51,3.29-13.7L248.75,34l-.81-8.29-1.26-5.28-.53-6.54-1.5-2.14a9.17,9.17,0,0,0-1.64-1.3c-.33-.06-4.08-1.46-4.08-1.46l-2.24-3.73-4.16-1,2.86,7.06s2,14.9-6.55,28.32c0,0-2.87,13.54-2.9,14.16s-4.31,6.89-4.31,6.89Z"/></g><path class="cls-12" d="M9.34,11c0-.15.2-4.81,2-4.31,0,0,2.37-.15,4.57,3.55l-1.16-3.9L11.81,5l-1.72-.54S8.18,7.75,8.18,7.71s-.56,3.57-.56,3.57v1.36Z"/><path class="cls-12" d="M17.86,3.91a4.67,4.67,0,0,1,2.85-2.5L17.86.9,15.93,3.31l.81,1.08Z"/><path class="cls-12" d="M22,17s.55-5.73,3.05-6.31L22,11.38l-1,2.93Z"/><path class="cls-12" d="M24,34.93s.83-4.41,4.67-4.91c0,0-1.67-.75-1.82-.75s-3.55,2.8-3.55,2.8A17.91,17.91,0,0,0,23.05,34,10.57,10.57,0,0,0,24,34.93Z"/><path class="cls-12" d="M217.93,8.25s.71-4,4,0c0,0,4.61,5.74,5.33,9.21L224.7,9.37l-2.12-2.51-1.89-2.48-2.4.16a16.46,16.46,0,0,0-1.8,2c-.06.26-.46,1.73-.46,1.73Z"/><path class="cls-12" d="M223.33,6.63,237,6.27s-2-1.61-2-1.53-7.61.11-7.61.11h-5.71Z"/><polygon class="cls-12" points="14.41 6.52 28.3 6.52 26.97 4.45 19.37 4.38 12.93 4.38 14.41 6.52"/><path class="cls-12" d="M6.66,15.64s4.95-3.61,4.95-3.71-.36-1.2-.59-1a25.79,25.79,0,0,1-3.25,1.67c-.15,0-2.58,1.6-2.58,1.6Z"/><path class="cls-13" d="M31.92,33.51a4.83,4.83,0,1,1-4.83-4.82A4.84,4.84,0,0,1,31.92,33.51Zm-8.08,0a3.26,3.26,0,1,0,3.25-3.25A3.26,3.26,0,0,0,23.84,33.51Z"/><path class="cls-13" d="M29.09,52.71A4.67,4.67,0,1,1,24.42,48,4.68,4.68,0,0,1,29.09,52.71Zm-7.77,0a3.1,3.1,0,1,0,3.1-3.1A3.1,3.1,0,0,0,21.32,52.71Z"/><path class="cls-13" d="M26.11,62.18c0,2.85-2.22,4.84-5.4,4.84s-5.41-2.09-5.41-5h1.57c0,2,1.58,3.41,3.84,3.41,1.9,0,3.83-1,3.83-3.27Z"/><path class="cls-13" d="M35.21,33.83c0,12.18-4,23.06-5.72,27.17a3.93,3.93,0,0,1-3.64,2.42h-14a.79.79,0,1,1,0-1.57h14A2.35,2.35,0,0,0,28,60.4a72.63,72.63,0,0,0,5.6-26.57.79.79,0,0,1,1.57,0Z"/><path class="cls-13" d="M20.65,34c0,3.33-.31,22.92-7.41,28.69a3,3,0,0,1-3,.52c-1.89-.79-3-3.64-3.4-8.71a.78.78,0,1,1,1.56-.13c.47,5.92,1.86,7.14,2.43,7.38a1.51,1.51,0,0,0,1.41-.27c7-5.71,6.84-27.68,6.83-27.91a.8.8,0,0,1,.78-.79.77.77,0,0,1,.79.77C20.65,33.56,20.65,33.72,20.65,34Z"/><path class="cls-13" d="M229.63,35.26c0,5.38-.71,19.76-7.91,27.1a3.56,3.56,0,0,1-6-1.68,8.82,8.82,0,0,1-.17-2.42.78.78,0,0,1,.82-.74.8.8,0,0,1,.75.82,7.31,7.31,0,0,0,.13,2,2,2,0,0,0,3.35.94c8.3-8.47,7.43-27.81,7.42-28a.8.8,0,0,1,.75-.82.78.78,0,0,1,.82.74C229.6,33.33,229.63,34.08,229.63,35.26Z"/><path class="cls-6" d="M1.26,38.34C4,45.14,8.44,40,8.44,40l-.82,7.29L6.37,50.77,4.69,52.68l-2-2.17L.79,44.38V40.64Z"/><path class="cls-13" d="M244,33.51c0,11.52-2.22,21.33-6.44,28.36a3.2,3.2,0,0,1-2.74,1.56H218.79a.79.79,0,0,1-.79-.79.78.78,0,0,1,.79-.78h16.05a1.64,1.64,0,0,0,1.39-.79c4.07-6.79,6.22-16.32,6.22-27.56a.79.79,0,0,1,.79-.78A.78.78,0,0,1,244,33.51Z"/><path class="cls-13" d="M249,33.92c0,14.23-3.87,22.44-4,22.79a.8.8,0,0,1-.57.44l-5,.88a.78.78,0,1,1-.27-1.54l4.57-.82c.75-1.77,3.89-10,3.72-22.79h0a.79.79,0,1,1,1.57,0C249,33.21,249,33.57,249,33.92Z"/><path class="cls-13" d="M16.69,34.68c0,19.23-4.78,22.14-5.34,22.42a.82.82,0,0,1-.76,0L3.86,52.88a.78.78,0,0,1,.83-1.33L11,55.44c1-1,4.31-5.55,4.16-21.92h0a.77.77,0,0,1,.77-.78.78.78,0,0,1,.8.77Z"/><path class="cls-13" d="M9.83,34.54c0,3.3-.25,15.08-3.7,18.14a1.91,1.91,0,0,1-2.66-.14C1.89,50.84,0,46.15,0,33.51a.79.79,0,0,1,1.57,0c0,13.25,2.14,17,3.05,18a.33.33,0,0,0,.47,0C7.85,49.06,8.3,37.93,8.25,33.84A.76.76,0,0,1,9,33.05a.77.77,0,0,1,.79.77C9.82,34,9.83,34.21,9.83,34.54Z"/><path class="cls-13" d="M9.83,34.54c0,3.3-.25,15.08-3.7,18.14a1.91,1.91,0,0,1-2.66-.14C1.89,50.84,0,46.15,0,33.51a.79.79,0,0,1,1.57,0c0,13.25,2.14,17,3.05,18a.33.33,0,0,0,.47,0C7.85,49.06,8.3,37.93,8.25,33.84A.76.76,0,0,1,9,33.05a.77.77,0,0,1,.79.77C9.82,34,9.83,34.21,9.83,34.54Z"/><path class="cls-13" d="M29.48,14.31a4.67,4.67,0,1,1-4.67-4.67A4.68,4.68,0,0,1,29.48,14.31Zm-7.77,0a3.1,3.1,0,1,0,3.1-3.1A3.1,3.1,0,0,0,21.71,14.31Z"/><path class="cls-13" d="M26.11,4.84H24.54c0-2.26-1.93-3.27-3.83-3.27C18.45,1.57,16.87,3,16.87,5H15.3c0-2.89,2.28-5,5.41-5S26.11,2,26.11,4.84Z"/><path class="cls-13" d="M35.21,33.51a.79.79,0,1,1-1.57,0c0-12.51-4.28-23.73-5.59-26.87a2.39,2.39,0,0,0-2.22-1.47h-14a.79.79,0,1,1,0-1.57h14A4,4,0,0,1,29.5,6C30.84,9.25,35.21,20.71,35.21,33.51Z"/><path class="cls-13" d="M20.65,33.07c0,.23,0,.39,0,.45a.79.79,0,1,1-1.57,0h0c0-.22.2-22.2-6.82-27.9a1.51,1.51,0,0,0-1.42-.28c-.57.25-2,1.46-2.43,7.38a.78.78,0,0,1-1.56-.12c.4-5.07,1.51-7.92,3.4-8.71a3,3,0,0,1,3,.52C20.34,10.15,20.65,29.74,20.65,33.07Z"/><circle class="cls-13" cx="224.1" cy="33.51" r="0.79"/><path class="cls-13" d="M229.63,31.76c0,1.18,0,1.93,0,2.08a.79.79,0,0,1-1.57-.08c0-.2.88-19.54-7.42-28a2,2,0,0,0-3.35.93,7.31,7.31,0,0,0-.13,2,.79.79,0,0,1-.75.82.78.78,0,0,1-.82-.74,8.72,8.72,0,0,1,.17-2.41,3.55,3.55,0,0,1,6-1.69C228.92,12,229.63,26.38,229.63,31.76Z"/><path class="cls-13" d="M244,33.51a.79.79,0,0,1-.78.79.8.8,0,0,1-.79-.79c0-11.24-2.15-20.76-6.22-27.55a1.62,1.62,0,0,0-1.39-.79H218.79a.79.79,0,1,1,0-1.57h16.05a3.19,3.19,0,0,1,2.74,1.55C241.8,12.18,244,22,244,33.51Z"/><path class="cls-13" d="M241.27,16.41a.79.79,0,0,1-.79.79h-6.07a1.24,1.24,0,0,0-1.22,1.47,11.06,11.06,0,0,1,.14,1.71c0,.25,0,.5,0,.74.06,1.05.14,2.1.22,3.15l.12,1.61c.46,6.43.79,14-.31,21.28-.07.43-.13.82-.2,1.19a1.25,1.25,0,0,0,1.22,1.48h6.07a.78.78,0,0,1,.79.78.79.79,0,0,1-.79.79h-6.07a2.79,2.79,0,0,1-2.17-1,2.75,2.75,0,0,1-.59-2.32c.07-.37.13-.75.19-1.13,1.07-7.13.75-14.58.29-20.93l-.12-1.6c-.07-1.05-.15-2.11-.22-3.16q0-.4,0-.81a11,11,0,0,0-.11-1.45,2.75,2.75,0,0,1,.59-2.32,2.78,2.78,0,0,1,2.17-1h6.07A.78.78,0,0,1,241.27,16.41Z"/><path class="cls-13" d="M249,31.82c0,.35,0,.7,0,1.06a.79.79,0,0,1-1.57,0c.17-12.76-2.94-19.95-3.69-21.51l-4.6-.81A.79.79,0,1,1,239.39,9l5,.89a.8.8,0,0,1,.55.38C245.09,10.56,249,17.62,249,31.82Z"/><path class="cls-13" d="M16.69,32.34v1.18a.8.8,0,0,1-.8.78.79.79,0,0,1-.77-.8C15.27,17.17,12,12.62,11,11.59L4.69,15.47a.78.78,0,0,1-.83-1.33L10.59,10a.79.79,0,0,1,.76,0C11.91,10.2,16.69,13.11,16.69,32.34Z"/><path class="cls-13" d="M9.83,33.09c0,.35,0,.6,0,.75a.78.78,0,0,1-.79.78.8.8,0,0,1-.78-.8c.06-4.26-.4-15.85-3.16-18.3a.34.34,0,0,0-.47,0c-.91,1-3,4.71-3,18a.79.79,0,0,1-.78.79A.79.79,0,0,1,0,33.51c0-12.64,1.89-17.32,3.47-19a1.9,1.9,0,0,1,2.66-.13C9.58,17.4,9.83,29.66,9.83,33.09Z"/><path class="cls-13" d="M17.53,21.4a2.64,2.64,0,0,1-.41,1.53.82.82,0,0,1-.57.31l-3.78.26h0a2.93,2.93,0,0,1-2.19-.76A2,2,0,0,1,10,21.43a2.33,2.33,0,0,1,2.09-2.53h0l4.11-.24a.8.8,0,0,1,.76.46A5.58,5.58,0,0,1,17.53,21.4Zm-1.59.31a3.13,3.13,0,0,0-.2-1.45l-3.51.2a.75.75,0,0,0-.7.86v.09c0,.24.32.53,1.16.53Z"/><path class="cls-14" d="M12.72,22.72l3.77-.27s.7-.93-.23-3l-4.11.23a1.59,1.59,0,0,0-1.41,1.71S10.7,22.74,12.72,22.72Z"/><path class="cls-13" d="M16.71,16a2.64,2.64,0,0,1-.4,1.53.79.79,0,0,1-.58.31L12,18.06h-.05a2.91,2.91,0,0,1-2.19-.75A2,2,0,0,1,9.15,16a2.33,2.33,0,0,1,2.08-2.52h.06l4.11-.23a.78.78,0,0,1,.76.46A5.53,5.53,0,0,1,16.71,16Zm-1.59.31a2.91,2.91,0,0,0-.19-1.44l-3.51.2a.76.76,0,0,0-.71.85.31.31,0,0,1,0,.1c0,.24.32.52,1.15.52Z"/><path class="cls-15" d="M11.9,17.28,15.68,17s.7-.94-.24-3l-4.11.24a1.58,1.58,0,0,0-1.4,1.7S9.88,17.29,11.9,17.28Z"/><circle class="cls-16" cx="216.18" cy="33.51" r="0.79"/><path class="cls-13" d="M29.71,57.52a.79.79,0,0,0,0,1.57H198l.06-1.57Z"/><path class="cls-13" d="M224.1,34.3a.79.79,0,0,1-.79-.79c0,17.07-4.14,22.92-5.06,24H196.89l-.06,1.57h21.76a.79.79,0,0,0,.52-.2c.23-.21,5.77-5.38,5.77-25.38A.79.79,0,0,1,224.1,34.3Z"/><path class="cls-13" d="M223.31,33.51a.79.79,0,0,1,1.57,0c0-20-5.54-25.17-5.77-25.38a.79.79,0,0,0-.52-.2H198.71l-.06,1.57h19.6C219.19,10.58,223.31,16.31,223.31,33.51Z"/><path class="cls-13" d="M29.71,7.93a.79.79,0,0,0-.78.79.78.78,0,0,0,.78.78h169.6l.05-1.57Z"/><path class="cls-13" d="M127.77,31.39a26.78,26.78,0,0,1-4.54,14.72c-.47.64-.9,1.24-1.29,1.82l0,.08c-5,7.42-2.78,9.41-2.75,9.43a.77.77,0,0,1,.17,1.09.8.8,0,0,1-1.11.18,3.15,3.15,0,0,1-1.08-2.08c-.37-2.33.78-5.5,3.43-9.46a20.26,20.26,0,0,0,.69-8.94,33.3,33.3,0,0,0-5.36-13.75c-2.09-3.32-4.73-8.23-3.46-12.62.5-1.76,1.36-2.72,2.54-2.87,3.25-.38,7.31,6.41,8.14,7.85A25.56,25.56,0,0,1,127.77,31.39Zm-4.88,12.33a25.69,25.69,0,0,0,2.7-6.87,23.48,23.48,0,0,0-3.81-19.15l0-.05c-1.74-3.06-4.94-7.29-6.59-7.09-.62.07-1,1-1.22,1.73-.81,2.84.26,6.55,3.29,11.35A34.92,34.92,0,0,1,122.81,38,24.19,24.19,0,0,1,122.89,43.72Z"/></g></g></g></svg>